<?xml version="1.0" encoding="UTF-8"?>
<svg width="752pt" height="752pt" version="1.1" viewBox="0 0 752 752" xmlns="http://www.w3.org/2000/svg">
 <g>
  <path d="m376 0c-49.375 0-98.27 9.7266-143.89 28.621-45.621 18.895-87.07 46.59-121.98 81.508-34.918 34.914-62.613 76.363-81.508 121.98-18.895 45.617-28.621 94.512-28.621 143.89 0 99.723 39.617 195.36 110.13 265.87 70.516 70.516 166.15 110.13 265.87 110.13 99.723 0 195.36-39.617 265.87-110.13 70.512-70.512 110.13-166.15 110.13-265.87 0-99.719-39.613-195.36-110.12-265.87-70.516-70.516-166.15-110.13-265.88-110.13zm0 42.465c43.316 0 86.207 8.625 126.23 25.387 40.02 16.762 76.379 41.332 107.01 72.305s54.926 67.738 71.5 108.21c16.578 40.465 25.105 83.84 25.105 127.64 0 88.461-34.75 173.3-96.605 235.84-61.859 62.551-145.75 97.691-233.23 97.691-43.312 0-86.207-8.625-126.22-25.387-40.02-16.762-76.383-41.332-107.01-72.301-30.629-30.973-54.926-67.742-71.504-108.21-16.574-40.469-25.105-83.84-25.105-127.64s8.5312-87.172 25.105-127.64c16.578-40.469 40.871-77.238 71.5-108.21 30.629-30.969 66.992-55.539 107.01-72.301 40.02-16.762 82.914-25.387 126.23-25.387z" fill="#676767"/>
  <path d="m525.45 235.71c-3.6758 58.828-68.023 76.293-108.47 86.406-40.445 10.113-93.758 22.062-123.18 95.598-29.414 73.539-93.758 85.488-93.758 85.488 29.414 56.992 196.71 146.16 330 23.898 133.29-122.25-4.5938-291.39-4.5938-291.39z"/>
  <path d="m264.39 291.79c-11.031-59.75 35.848-108.47 35.848-108.47-202.22 99.273-121.33 290.47-121.33 290.47 98.355-41.367 96.516-122.26 85.484-182z"/>
  <path d="m300.24 283.52c9.1914 54.234-17.465 90.082-17.465 90.082 38.605-15.625 56.07-50.555 63.426-115.82 7.3516-65.266 53.312-95.598 53.312-95.598-90.082-2.7578-108.47 67.102-99.273 121.34z"/>
  <path d="m356.31 312.47s63.887-4.5977 76.754-57.449c12.867-52.855 62.508-62.508 62.508-62.508s-51.016-36.77-101.49 0c-50.48 36.77-37.77 119.96-37.77 119.96z"/>
 </g>
</svg>
